HIERARCHY
ROOT root
{
	OFFSET 0.000000 0.000000 0.000000
	CHANNELS 6 Xposition Yposition Zposition Zrotation Yrotation Xrotation
	JOINT lhip
	{
		OFFSET 0.058581 -0.082280 -0.017664
		CHANNELS 3 Zrotation Yrotation Xrotation
		JOINT lknee
		{
			OFFSET 0.043451 -0.386469 0.008037
			CHANNELS 3 Zrotation Yrotation Xrotation
			JOINT lankle
			{
				OFFSET -0.014790 -0.426874 -0.037428
				CHANNELS 3 Zrotation Yrotation Xrotation
				JOINT ltoe
				{
					OFFSET 0.041054 -0.060286 0.122042
					CHANNELS 3 Zrotation Yrotation Xrotation
					End Site
					{
						OFFSET 0.000000 0.000000 0.000000
					}
				}
			}
		}
	}
	JOINT rhip
	{
		OFFSET -0.060310 -0.090513 -0.013543
		CHANNELS 3 Zrotation Yrotation Xrotation
		JOINT rknee
		{
			OFFSET -0.043257 -0.383688 -0.004843
			CHANNELS 3 Zrotation Yrotation Xrotation
			JOINT rankle
			{
				OFFSET 0.019056 -0.420046 -0.034562
				CHANNELS 3 Zrotation Yrotation Xrotation
				JOINT rtoe
				{
					OFFSET -0.034840 -0.062106 0.130323
					CHANNELS 3 Zrotation Yrotation Xrotation
					End Site
					{
						OFFSET 0.000000 0.000000 0.000000
					}
				}
			}
		}
	}
	JOINT lowerback
	{
		OFFSET 0.004439 0.124404 -0.038385
		CHANNELS 3 Zrotation Yrotation Xrotation
		JOINT upperback
		{
			OFFSET 0.004488 0.137956 0.026820
			CHANNELS 3 Zrotation Yrotation Xrotation
			JOINT chest
			{
				OFFSET -0.002265 0.056032 0.002855
				CHANNELS 3 Zrotation Yrotation Xrotation
				JOINT lowerneck
				{
					OFFSET -0.013390 0.211636 -0.033468
					CHANNELS 3 Zrotation Yrotation Xrotation
					JOINT upperneck
					{
						OFFSET 0.010113 0.088937 0.050410
						CHANNELS 3 Zrotation Yrotation Xrotation
						End Site
						{
							OFFSET 0.000000 0.000000 0.000000
						}
					}
				}
				JOINT lclavicle
				{
					OFFSET 0.071702 0.114000 -0.018898
					CHANNELS 3 Zrotation Yrotation Xrotation
					JOINT lshoulder
					{
						OFFSET 0.122921 0.045205 -0.019046
						CHANNELS 3 Zrotation Yrotation Xrotation
						JOINT lelbow
						{
							OFFSET 0.255332 -0.015649 -0.022946
							CHANNELS 3 Zrotation Yrotation Xrotation
							JOINT lwrist
							{
								OFFSET 0.265709 0.012698 -0.007375
								CHANNELS 3 Zrotation Yrotation Xrotation
								End Site
								{
									OFFSET 0.000000 0.000000 0.000000
								}
							}
						}
					}
				}
				JOINT rclavicle
				{
					OFFSET -0.082954 0.112472 -0.023707
					CHANNELS 3 Zrotation Yrotation Xrotation
					JOINT rshoulder
					{
						OFFSET -0.113228 0.046853 -0.008472
						CHANNELS 3 Zrotation Yrotation Xrotation
						JOINT relbow
						{
							OFFSET -0.260127 -0.014369 -0.031269
							CHANNELS 3 Zrotation Yrotation Xrotation
							JOINT rwrist
							{
								OFFSET -0.269108 0.006794 -0.006027
								CHANNELS 3 Zrotation Yrotation Xrotation
								End Site
								{
									OFFSET 0.000000 0.000000 0.000000
								}
							}
						}
					}
				}
			}
		}
	}
}
MOTION
Frames: 12
Frame Time: 0.033333
-0.139727 0.497658 0.849264 -4.126450 1.783415 85.007904 8.962873 2.058382 -27.475144 -11.150246 2.996406 60.442043 5.295487 10.766420 -33.312779 0.000000 -0.000000 0.000000 -4.516166 -2.739722 -30.850277 2.735342 -4.923985 65.217615 -4.103625 -9.713689 -34.824387 0.000000 -0.000000 0.000000 -3.908204 1.141253 18.725999 2.150814 -3.255371 3.295743 1.220089 1.179826 2.108057 5.143127 10.503672 -8.576221 0.373872 -4.950439 -0.910665 2.918968 -22.884623 -15.937476 -7.103112 -27.187254 -9.725451 39.214109 -62.301972 -19.606110 -7.630481 -9.817453 4.129235 -0.323177 26.002857 -12.737295 7.083011 39.094263 -17.447045 -30.629343 52.272587 -18.992133 25.723746 6.042393 -12.624568 
-0.139531 0.497617 0.850072 -4.209103 1.726623 84.959247 8.876878 2.057452 -27.246943 -11.220604 2.942758 60.095436 5.280082 10.983172 -33.083030 0.000000 -0.000000 0.000000 -4.529127 -2.826678 -30.729402 2.834541 -4.735319 65.024007 -4.062158 -9.704306 -34.705981 0.000000 -0.000000 0.000000 -4.015275 1.156040 18.546241 2.130982 -3.269584 3.590506 1.318623 1.241329 2.133146 5.090253 10.255707 -8.415981 0.322229 -4.889042 -1.442604 2.626295 -22.907479 -15.936550 -6.968994 -27.178064 -9.660186 38.781752 -62.334334 -19.617898 -7.647536 -10.071215 4.633231 -0.242844 25.952425 -12.644322 6.988139 39.114048 -17.422820 -30.492446 52.388781 -19.030520 25.955896 5.881406 -12.466553 
-0.139305 0.497787 0.851466 -4.196468 1.747024 84.975108 8.841539 1.949166 -27.110319 -11.251806 2.834348 59.776605 5.159905 11.076729 -33.009420 0.000000 -0.000000 0.000000 -4.586438 -2.878518 -30.563235 2.953350 -4.785269 64.654454 -4.004397 -9.629331 -34.540960 0.000000 -0.000000 0.000000 -3.960187 1.132309 18.473418 2.111974 -3.274277 3.701308 1.322261 1.189490 2.132382 5.077351 9.994465 -8.513089 0.225618 -5.063790 -1.283446 2.594716 -22.919244 -15.802050 -7.033551 -26.976637 -9.596180 39.140062 -62.483136 -19.829270 -7.759556 -9.754732 4.671836 -0.290845 25.922811 -12.657855 7.051212 39.081693 -17.436442 -30.253328 52.444127 -18.764031 26.338615 5.699422 -12.395998 
-0.139066 0.498326 0.853603 -4.223817 1.798328 85.242564 8.809391 2.054238 -27.198397 -11.330490 2.631246 59.369093 5.117222 11.103628 -32.753187 0.000000 -0.000000 0.000000 -4.584357 -2.838369 -30.621489 3.063155 -4.852807 64.125046 -3.964859 -9.554688 -34.293311 0.000000 -0.000000 0.000000 -3.867903 1.072655 18.411481 2.086515 -3.269160 3.433976 1.322526 1.139613 2.105174 5.102957 9.895263 -8.284100 0.144688 -5.066217 -1.385484 2.565803 -22.723777 -15.910819 -7.042213 -27.034681 -9.492721 38.181872 -62.567030 -19.399743 -7.559500 -9.353517 4.607906 -0.307596 25.716734 -12.800445 7.176004 39.174144 -17.216101 -29.920076 52.538605 -18.810522 25.695378 5.636385 -12.206913 
-0.138934 0.498557 0.854901 -4.198854 1.810902 85.321874 8.836047 2.062651 -27.122562 -11.321918 2.646076 59.046470 5.114367 10.981407 -32.600501 0.000000 -0.000000 0.000000 -4.557093 -2.921424 -30.547112 3.050758 -4.822666 63.808706 -3.979202 -9.485423 -34.272281 0.000000 -0.000000 0.000000 -3.836703 1.096026 18.393766 2.068739 -3.269262 3.467282 1.345012 1.120895 2.090234 5.064462 9.795442 -8.247619 0.133050 -4.926034 -1.500371 2.750167 -22.655359 -15.926386 -7.251349 -27.039139 -9.424962 38.403127 -62.500801 -19.335867 -7.419598 -9.690204 4.591577 -0.525422 25.602087 -12.913066 7.199243 39.084027 -17.275794 -29.914942 52.534510 -18.621444 25.973751 5.630036 -12.293826 
-0.138891 0.499264 0.856092 -4.186169 1.779097 85.422986 8.824307 2.016555 -27.082226 -11.082948 2.793658 58.656620 5.069365 10.749454 -32.402552 0.000000 -0.000000 0.000000 -4.646162 -2.909900 -30.547761 3.108111 -4.914774 63.486073 -3.917149 -9.373492 -34.095242 0.000000 -0.000000 0.000000 -3.875878 1.081961 18.484435 2.082667 -3.297220 3.283915 1.329142 1.115290 2.061000 5.053550 9.746662 -8.193200 0.274426 -5.054871 -1.473792 2.774396 -22.637370 -15.799100 -7.111105 -26.959904 -9.408290 38.433016 -62.300145 -19.332793 -7.372330 -10.280844 4.609493 -0.521384 25.640331 -12.891621 6.935897 39.057385 -17.388545 -29.977937 52.413414 -18.865768 25.250435 5.998137 -12.307602 
-0.138757 0.499486 0.856700 -4.244395 1.790952 85.447777 8.833412 2.049452 -27.071035 -11.089749 2.795008 58.574902 5.025697 10.784029 -32.355355 0.000000 -0.000000 0.000000 -4.577613 -2.983369 -30.526178 3.106665 -4.801846 63.317293 -4.075919 -9.391386 -33.928372 0.000000 -0.000000 0.000000 -3.868005 1.128992 18.523709 2.084291 -3.321706 3.237954 1.354377 1.098192 1.989977 5.077845 9.890135 -8.012489 0.326068 -4.955583 -1.342855 2.796519 -22.727514 -15.731872 -6.856890 -26.786053 -9.546345 38.152579 -62.392200 -19.284902 -7.253906 -10.211926 4.875996 -0.584078 25.624949 -12.869871 6.786875 39.082806 -17.625804 -30.047967 52.389424 -18.882943 25.218575 5.767041 -12.321766 
-0.138642 0.499665 0.856255 -4.256867 1.823683 85.436856 8.870480 2.124242 -27.147046 -11.159790 2.770380 58.737819 5.023754 10.731685 -32.381112 0.000000 -0.000000 0.000000 -4.559788 -2.981472 -30.563282 3.110343 -4.817001 63.413324 -3.969808 -9.335317 -33.996480 0.000000 -0.000000 0.000000 -3.829797 1.127937 18.596470 2.101212 -3.328415 3.157728 1.330719 1.056272 2.054513 5.089298 9.850496 -8.006372 0.316704 -5.041035 -1.150530 2.938082 -22.641188 -15.795069 -6.881865 -26.760884 -9.558410 38.157443 -62.457562 -19.274607 -7.117284 -10.237231 4.769685 -0.709671 25.524815 -13.025237 6.761323 39.118679 -17.690926 -30.036537 52.435337 -18.989133 25.106559 5.818778 -12.522328 
-0.138512 0.499712 0.855014 -4.225259 1.832896 85.378307 8.878942 2.152092 -27.246120 -11.103305 2.827689 59.012389 5.091306 10.681035 -32.516281 0.000000 -0.000000 0.000000 -4.589904 -2.940651 -30.681086 3.068047 -4.879297 63.733462 -3.962573 -9.387834 -34.083149 0.000000 -0.000000 0.000000 -3.840721 1.143177 18.632567 2.147441 -3.293235 3.217860 1.381816 1.032549 2.064121 5.103842 9.674423 -7.893657 0.170422 -4.992546 -1.276741 2.959208 -22.610709 -15.849830 -7.055451 -26.881098 -9.477201 38.140213 -62.479539 -19.062348 -7.175475 -10.139476 4.581249 -0.839942 25.439024 -13.155200 6.844219 39.083104 -17.615481 -30.354052 52.383068 -19.243424 25.042678 5.819468 -12.405205 
-0.138411 0.499646 0.852961 -4.266581 1.796686 85.190956 8.881737 2.130269 -27.299366 -11.362732 2.830258 59.474792 5.152687 11.001694 -32.782371 0.000000 -0.000000 0.000000 -4.596590 -2.991836 -30.759289 3.058296 -4.776395 64.238526 -3.981518 -9.473565 -34.360741 0.000000 -0.000000 0.000000 -3.875889 1.115443 18.736183 2.118772 -3.335107 3.326117 1.355857 1.058478 1.981416 5.118385 9.729110 -7.703015 0.380658 -4.974051 -1.165392 2.828959 -22.815400 -15.705165 -6.946211 -26.583313 -9.404800 38.356360 -62.649515 -19.348774 -6.942358 -9.760685 4.573914 -0.757147 25.655250 -12.985536 6.843594 38.898354 -17.698361 -30.571206 52.430224 -19.499426 25.091224 5.772518 -12.339514 
-0.138210 0.499908 0.851042 -4.233889 1.767230 85.053333 8.826035 2.041530 -27.448153 -11.379264 2.859696 59.970562 5.254443 11.128097 -32.949666 0.000000 -0.000000 0.000000 -4.652154 -2.998334 -30.895365 3.026480 -4.773643 64.739474 -3.997021 -9.511532 -34.491372 0.000000 -0.000000 0.000000 -3.899369 1.163699 18.831695 2.172580 -3.321811 3.283586 1.338836 1.055539 2.120607 5.197981 9.602455 -7.864036 0.318510 -5.176789 -0.867988 2.781011 -22.716109 -15.671700 -7.160734 -26.940829 -9.469071 38.150351 -62.510977 -19.047281 -7.165278 -9.919091 4.459899 -0.686084 25.528626 -12.960365 6.760873 38.944695 -17.723228 -30.431583 52.377216 -19.279574 25.189187 5.878545 -12.489834 
-0.138172 0.499830 0.849803 -4.287996 1.751739 84.893502 8.803955 2.087008 -27.405969 -11.251373 2.971854 60.245887 5.313579 11.143767 -33.055363 0.000000 -0.000000 0.000000 -4.605027 -2.883967 -30.874503 2.968872 -4.702963 65.008556 -4.110968 -9.726993 -34.652902 0.000000 -0.000000 0.000000 -3.951496 1.097898 18.899759 2.169400 -3.346517 3.383444 1.319976 1.082669 2.062872 5.264802 9.509423 -7.690390 0.408610 -5.223070 -0.869865 2.565631 -22.856256 -15.492346 -7.038726 -26.649601 -9.413647 38.221404 -62.636386 -18.941000 -7.404980 -9.841843 4.607724 -0.535567 25.780941 -12.799512 6.778701 38.802339 -17.606816 -30.373574 52.344299 -19.192936 25.255724 5.923142 -12.429649 
